<svg width="222" height="198" viewBox="0 0 222 198" fill="none" xmlns="http://www.w3.org/2000/svg">
<path d="M33.0068 108.677L50.3011 133.092H158.953L176.248 108.677H33.0068Z" fill="#66B5FF"/>
<path d="M103.105 104.269V30.5173C103.105 30.5173 91.661 86.8907 51.8186 104.269H103.105Z" fill="#66B5FF"/>
<path d="M107.344 1.8422e-05V104.269H157.36C157.36 104.269 161.597 40.2653 107.344 1.8422e-05Z" fill="#66B5FF"/>
<path d="M152.904 134.999C148.194 134.999 145.808 132.687 143.704 130.647C141.814 128.816 140.322 127.369 137.16 127.369C134 127.369 132.508 128.816 130.62 130.647C128.517 132.685 126.133 134.999 121.426 134.999C116.72 134.999 114.334 132.687 112.23 130.647C110.341 128.816 108.849 127.369 105.689 127.369C102.528 127.369 101.037 128.816 99.1505 130.647C97.0465 132.685 94.6611 134.999 89.9558 134.999C85.2505 134.999 82.8651 132.685 80.7625 130.647C78.8758 128.816 77.3865 127.369 74.2265 127.369C71.0664 127.369 69.5755 128.816 67.6886 130.647C65.5845 132.685 63.2001 134.999 58.4943 134.999C53.7875 134.999 51.4026 132.685 49.299 130.647C47.4121 128.816 45.9214 127.369 42.761 127.369V123.555C47.4667 123.555 49.8515 125.868 51.9558 127.907C53.8422 129.739 55.3334 131.184 58.4943 131.184C61.6542 131.184 63.1454 129.739 65.0323 127.907C67.1375 125.868 69.5208 123.555 74.2265 123.555C78.9318 123.555 81.3171 125.868 83.4198 127.907C85.3065 129.739 86.7958 131.184 89.9558 131.184C93.1158 131.184 94.6078 129.739 96.4945 127.907C98.5971 125.868 100.982 123.555 105.689 123.555C110.396 123.555 112.781 125.867 114.885 127.907C116.774 129.739 118.265 131.184 121.426 131.184C124.586 131.184 126.077 129.739 127.965 127.907C130.068 125.868 132.452 123.555 137.16 123.555C141.866 123.555 144.253 125.867 146.358 127.907C148.248 129.739 149.74 131.184 152.904 131.184C156.066 131.184 157.558 129.739 159.448 127.907C161.553 125.867 163.938 123.555 168.646 123.555V127.369C165.484 127.369 163.992 128.816 162.102 130.647C159.998 132.687 157.612 134.999 152.904 134.999Z" fill="#004F99"/>
<path d="M152.904 143.776C148.194 143.776 145.808 141.464 143.704 139.424C141.814 137.593 140.322 136.147 137.16 136.147C134 136.147 132.508 137.593 130.62 139.424C128.517 141.463 126.133 143.776 121.426 143.776C116.72 143.776 114.334 141.464 112.23 139.424C110.341 137.593 108.849 136.147 105.689 136.147C102.528 136.147 101.037 137.593 99.1505 139.424C97.0465 141.463 94.6611 143.776 89.9558 143.776C85.2505 143.776 82.8651 141.463 80.7625 139.424C78.8758 137.593 77.3865 136.147 74.2265 136.147C71.0664 136.147 69.5755 137.593 67.6886 139.424C65.5845 141.463 63.2001 143.776 58.4943 143.776C53.7875 143.776 51.4026 141.463 49.299 139.424C47.4121 137.593 45.9214 136.147 42.761 136.147V132.332C47.4667 132.332 49.8515 134.645 51.9558 136.685C53.8422 138.516 55.3334 139.961 58.4943 139.961C61.6542 139.961 63.1454 138.516 65.0323 136.685C67.1375 134.645 69.5208 132.332 74.2265 132.332C78.9318 132.332 81.3171 134.645 83.4198 136.685C85.3065 138.516 86.7958 139.961 89.9558 139.961C93.1158 139.961 94.6078 138.516 96.4945 136.685C98.5971 134.645 100.982 132.332 105.689 132.332C110.396 132.332 112.781 134.644 114.885 136.684C116.774 138.516 118.265 139.961 121.426 139.961C124.586 139.961 126.077 138.516 127.965 136.685C130.068 134.645 132.452 132.332 137.16 132.332C141.866 132.332 144.253 134.644 146.358 136.684C148.248 138.516 149.74 139.961 152.904 139.961C156.066 139.961 157.558 138.516 159.448 136.684C161.553 134.644 163.938 132.332 168.646 132.332V136.147C165.484 136.147 163.992 137.593 162.102 139.424C159.998 141.464 157.612 143.776 152.904 143.776Z" fill="#004F99"/>
<path d="M22.2614 154.719C24.4311 154.719 26.0471 155.228 27.1094 156.245C28.1717 157.262 28.7028 158.765 28.7028 160.754C28.7028 161.816 28.4429 162.754 27.9231 163.568C27.4032 164.359 26.6348 164.98 25.6177 165.432C24.6006 165.862 23.3462 166.076 21.8545 166.076L21.9901 164.551C22.6908 164.551 23.4932 164.652 24.3972 164.856C25.3013 165.037 26.1715 165.376 27.0077 165.873C27.8666 166.348 28.5672 167.026 29.1097 167.907C29.6747 168.766 29.9572 169.873 29.9572 171.23C29.9572 172.721 29.7086 173.942 29.2114 174.891C28.7367 175.84 28.1039 176.575 27.3128 177.095C26.5218 177.614 25.6742 177.976 24.7701 178.18C23.8661 178.36 22.9959 178.451 22.1597 178.451H13.7179C13.1303 178.451 12.633 178.259 12.2262 177.874C11.842 177.468 11.6499 176.97 11.6499 176.383V156.787C11.6499 156.199 11.842 155.713 12.2262 155.329C12.633 154.922 13.1303 154.719 13.7179 154.719H22.2614ZM21.6511 158.719H15.6165L16.0572 158.177V164.313L15.6504 164.008H21.7528C22.4083 164.008 22.9959 163.794 23.5158 163.364C24.0356 162.935 24.2955 162.313 24.2955 161.499C24.2955 160.528 24.0469 159.827 23.5497 159.398C23.075 158.945 22.4422 158.719 21.6511 158.719ZM21.9223 168.009H15.7521L16.0572 167.738V174.891L15.7182 174.552H22.1597C23.1993 174.552 24.0243 174.281 24.6345 173.738C25.2448 173.173 25.5499 172.337 25.5499 171.23C25.5499 170.212 25.3465 169.478 24.9397 169.026C24.5328 168.574 24.0469 168.291 23.4819 168.178C22.9168 168.065 22.397 168.009 21.9223 168.009ZM55.6985 166.585C55.6985 168.28 55.416 169.862 54.851 171.331C54.2859 172.8 53.4836 174.1 52.4439 175.23C51.4268 176.337 50.2063 177.208 48.7824 177.84C47.3811 178.473 45.8442 178.79 44.1717 178.79C42.4991 178.79 40.9622 178.473 39.5609 177.84C38.1596 177.208 36.9391 176.337 35.8994 175.23C34.8824 174.1 34.0913 172.8 33.5263 171.331C32.9612 169.862 32.6787 168.28 32.6787 166.585C32.6787 164.89 32.9612 163.308 33.5263 161.839C34.0913 160.369 34.8824 159.081 35.8994 157.974C36.9391 156.844 38.1596 155.962 39.5609 155.329C40.9622 154.696 42.4991 154.38 44.1717 154.38C45.8442 154.38 47.3811 154.696 48.7824 155.329C50.2063 155.962 51.4268 156.844 52.4439 157.974C53.4836 159.081 54.2859 160.369 54.851 161.839C55.416 163.308 55.6985 164.89 55.6985 166.585ZM51.2912 166.585C51.2912 165.071 50.9861 163.703 50.3758 162.483C49.7656 161.24 48.9293 160.256 47.867 159.533C46.8048 158.81 45.573 158.448 44.1717 158.448C42.7704 158.448 41.5386 158.81 40.4763 159.533C39.414 160.256 38.5777 161.228 37.9675 162.449C37.3799 163.669 37.086 165.048 37.086 166.585C37.086 168.099 37.3799 169.478 37.9675 170.721C38.5777 171.941 39.414 172.913 40.4763 173.637C41.5386 174.36 42.7704 174.721 44.1717 174.721C45.573 174.721 46.8048 174.36 47.867 173.637C48.9293 172.913 49.7656 171.941 50.3758 170.721C50.9861 169.478 51.2912 168.099 51.2912 166.585ZM68.1376 160.042L60.8146 177.264C60.6564 177.694 60.4078 178.033 60.0688 178.281C59.7523 178.507 59.402 178.62 59.0178 178.62C58.4075 178.62 57.9555 178.451 57.6617 178.112C57.3679 177.773 57.221 177.355 57.221 176.857C57.221 176.654 57.2549 176.439 57.3227 176.213L65.7644 155.939C65.9452 155.487 66.2164 155.137 66.5781 154.888C66.9623 154.64 67.3691 154.538 67.7986 154.583C68.2054 154.583 68.5783 154.708 68.9173 154.956C69.279 155.182 69.5389 155.51 69.6971 155.939L78.0371 175.806C78.1501 176.1 78.2066 176.371 78.2066 176.62C78.2066 177.23 78.0032 177.716 77.5964 178.078C77.2122 178.439 76.7827 178.62 76.3081 178.62C75.9013 178.62 75.5283 178.496 75.1893 178.247C74.8729 177.999 74.6243 177.66 74.4434 177.23L67.1544 160.245L68.1376 160.042ZM61.8656 173.128L63.7302 169.229H72.8839L73.5281 173.128H61.8656ZM87.4236 178.451C86.7908 178.451 86.2709 178.259 85.8641 177.874C85.4573 177.468 85.2539 176.97 85.2539 176.383V156.719H89.6612V176.383C89.6612 176.97 89.4465 177.468 89.017 177.874C88.6102 178.259 88.0791 178.451 87.4236 178.451ZM79.9312 158.618C79.3435 158.618 78.8463 158.437 78.4394 158.075C78.0552 157.714 77.8631 157.239 77.8631 156.651C77.8631 156.064 78.0552 155.6 78.4394 155.261C78.8463 154.9 79.3435 154.719 79.9312 154.719H94.9839C95.5715 154.719 96.0575 154.9 96.4417 155.261C96.8485 155.623 97.0519 156.098 97.0519 156.685C97.0519 157.273 96.8485 157.748 96.4417 158.109C96.0575 158.448 95.5715 158.618 94.9839 158.618H79.9312Z" fill="#001A33"/>
<path d="M99.7045 178.682C99.3655 178.682 99.083 178.581 98.857 178.377C98.6535 178.174 98.5518 177.937 98.5518 177.665V155.968C98.5518 155.697 98.6535 155.459 98.857 155.256C99.0604 155.052 99.2977 154.951 99.5689 154.951H108.723C110.011 154.951 111.164 155.233 112.181 155.798C113.198 156.341 113.989 157.098 114.554 158.07C115.141 159.042 115.435 160.138 115.435 161.358C115.435 162.353 115.254 163.268 114.893 164.104C114.531 164.941 114.023 165.653 113.367 166.24C112.712 166.805 111.977 167.223 111.164 167.495L109.977 167.122C110.813 167.189 111.593 167.461 112.316 167.935C113.04 168.387 113.616 169.02 114.045 169.834C114.497 170.625 114.735 171.586 114.757 172.716C114.78 173.687 114.825 174.445 114.893 174.987C114.983 175.529 115.108 175.936 115.266 176.208C115.424 176.479 115.627 176.693 115.876 176.852C116.102 176.987 116.249 177.179 116.317 177.428C116.407 177.677 116.385 177.914 116.249 178.14C116.159 178.321 116.023 178.456 115.842 178.547C115.684 178.615 115.514 178.649 115.334 178.649C115.153 178.649 114.972 178.603 114.791 178.513C114.475 178.332 114.147 178.05 113.808 177.665C113.492 177.281 113.22 176.716 112.994 175.97C112.791 175.224 112.689 174.185 112.689 172.851C112.689 171.97 112.542 171.246 112.248 170.681C111.977 170.116 111.616 169.687 111.164 169.393C110.734 169.077 110.248 168.862 109.706 168.749C109.186 168.613 108.689 168.546 108.214 168.546H100.315L100.688 168.071V177.665C100.688 177.937 100.597 178.174 100.416 178.377C100.236 178.581 99.9983 178.682 99.7045 178.682ZM100.315 166.681H108.824C109.593 166.613 110.316 166.365 110.994 165.935C111.672 165.483 112.215 164.873 112.621 164.104C113.051 163.336 113.266 162.443 113.266 161.426C113.266 160.138 112.825 159.075 111.943 158.239C111.084 157.38 109.954 156.951 108.553 156.951H100.45L100.688 156.476V167.156L100.315 166.681ZM122.281 154.951H134.723C134.994 154.951 135.232 155.052 135.435 155.256C135.639 155.437 135.74 155.674 135.74 155.968C135.74 156.262 135.639 156.499 135.435 156.68C135.232 156.861 134.994 156.951 134.723 156.951H123.061L123.4 156.375V165.901L123.027 165.46H133.198C133.469 165.46 133.706 165.562 133.91 165.766C134.113 165.969 134.215 166.206 134.215 166.478C134.215 166.771 134.113 167.009 133.91 167.189C133.706 167.37 133.469 167.461 133.198 167.461H123.095L123.4 167.122V176.886L123.23 176.682H134.723C134.994 176.682 135.232 176.784 135.435 176.987C135.639 177.191 135.74 177.428 135.74 177.699C135.74 177.993 135.639 178.23 135.435 178.411C135.232 178.592 134.994 178.682 134.723 178.682H122.281C122.01 178.682 121.772 178.581 121.569 178.377C121.366 178.174 121.264 177.937 121.264 177.665V155.968C121.264 155.697 121.366 155.459 121.569 155.256C121.772 155.052 122.01 154.951 122.281 154.951ZM157.891 154.951C158.185 154.951 158.411 155.041 158.569 155.222C158.75 155.403 158.84 155.629 158.84 155.9V177.598C158.84 177.937 158.727 178.208 158.501 178.411C158.298 178.592 158.06 178.682 157.789 178.682C157.653 178.682 157.507 178.66 157.348 178.615C157.19 178.547 157.066 178.456 156.975 178.343L141.855 157.968L142.431 157.663V177.767C142.431 178.016 142.341 178.23 142.16 178.411C141.979 178.592 141.753 178.682 141.482 178.682C141.188 178.682 140.951 178.592 140.77 178.411C140.612 178.23 140.533 178.016 140.533 177.767V155.968C140.533 155.629 140.634 155.38 140.838 155.222C141.041 155.041 141.267 154.951 141.516 154.951C141.651 154.951 141.798 154.985 141.957 155.052C142.115 155.098 142.239 155.188 142.33 155.324L157.281 175.462L156.942 176.072V155.9C156.942 155.629 157.032 155.403 157.213 155.222C157.416 155.041 157.642 154.951 157.891 154.951ZM172.25 178.682C171.933 178.682 171.673 178.581 171.47 178.377C171.289 178.174 171.199 177.937 171.199 177.665V156.069H173.301V177.665C173.301 177.937 173.199 178.174 172.996 178.377C172.792 178.581 172.544 178.682 172.25 178.682ZM164.181 156.883C163.91 156.883 163.673 156.793 163.469 156.612C163.266 156.431 163.164 156.194 163.164 155.9C163.164 155.629 163.266 155.403 163.469 155.222C163.673 155.041 163.91 154.951 164.181 154.951H180.319C180.59 154.951 180.827 155.041 181.031 155.222C181.234 155.403 181.336 155.64 181.336 155.934C181.336 156.228 181.234 156.465 181.031 156.646C180.827 156.804 180.59 156.883 180.319 156.883H164.181ZM191.904 157.561L183.665 178.038C183.575 178.264 183.45 178.434 183.292 178.547C183.134 178.66 182.953 178.716 182.75 178.716C182.433 178.716 182.196 178.637 182.038 178.479C181.88 178.298 181.789 178.083 181.767 177.835C181.744 177.722 181.755 177.586 181.801 177.428L190.751 155.527C190.864 155.278 190.999 155.109 191.158 155.018C191.338 154.905 191.542 154.849 191.768 154.849C191.994 154.849 192.186 154.917 192.344 155.052C192.525 155.165 192.661 155.324 192.751 155.527L201.667 177.326C201.713 177.462 201.735 177.598 201.735 177.733C201.735 178.05 201.634 178.298 201.43 178.479C201.227 178.637 200.989 178.716 200.718 178.716C200.492 178.716 200.289 178.66 200.108 178.547C199.95 178.411 199.825 178.242 199.735 178.038L191.293 157.426L191.904 157.561ZM185.632 171.834L186.479 169.834H196.989L197.396 171.834H185.632ZM219.041 176.682C219.312 176.682 219.55 176.784 219.753 176.987C219.957 177.168 220.058 177.394 220.058 177.665C220.058 177.959 219.957 178.208 219.753 178.411C219.55 178.592 219.312 178.682 219.041 178.682H206.938C206.644 178.682 206.396 178.581 206.192 178.377C206.011 178.174 205.921 177.937 205.921 177.665V155.968C205.921 155.697 206.023 155.459 206.226 155.256C206.429 155.052 206.689 154.951 207.006 154.951C207.277 154.951 207.514 155.052 207.718 155.256C207.944 155.459 208.057 155.697 208.057 155.968V177.259L207.413 176.682H219.041Z" fill="#001A33"/>
<path d="M4.46455 186.835C5.0931 186.835 5.6477 186.992 6.12836 187.307C6.61826 187.621 7.00648 188.055 7.29302 188.61C7.57957 189.155 7.72284 189.789 7.72284 190.51C7.72284 191.212 7.57957 191.845 7.29302 192.409C7.00648 192.973 6.61826 193.417 6.12836 193.74C5.63846 194.064 5.08848 194.225 4.47842 194.225C4.1549 194.225 3.84525 194.175 3.54946 194.073C3.26291 193.971 2.99948 193.837 2.75915 193.671C2.51882 193.495 2.30622 193.292 2.12136 193.061C1.93649 192.83 1.78859 192.58 1.67767 192.312L1.92724 192.132V193.699C1.92724 193.819 1.88565 193.92 1.80246 194.004C1.72851 194.077 1.63146 194.114 1.51129 194.114C1.39113 194.114 1.28945 194.077 1.20626 194.004C1.13231 193.92 1.09534 193.819 1.09534 193.699V184.256C1.09534 184.136 1.13231 184.039 1.20626 183.965C1.28021 183.882 1.38188 183.84 1.51129 183.84C1.63146 183.84 1.72851 183.882 1.80246 183.965C1.88565 184.039 1.92724 184.136 1.92724 184.256V188.901L1.73313 188.79C1.82557 188.504 1.9596 188.245 2.13522 188.014C2.32009 187.774 2.53269 187.566 2.77301 187.39C3.01334 187.214 3.27678 187.08 3.56332 186.988C3.84987 186.886 4.15028 186.835 4.46455 186.835ZM4.39523 187.612C3.89608 187.612 3.45702 187.737 3.07804 187.986C2.69907 188.236 2.39866 188.578 2.17682 189.012C1.96422 189.447 1.85792 189.946 1.85792 190.51C1.85792 191.064 1.96422 191.568 2.17682 192.021C2.39866 192.465 2.69907 192.816 3.07804 193.075C3.45702 193.324 3.89608 193.449 4.39523 193.449C4.88512 193.449 5.31494 193.32 5.68468 193.061C6.06366 192.802 6.36407 192.451 6.58591 192.007C6.80775 191.554 6.91867 191.055 6.91867 190.51C6.91867 189.946 6.80775 189.447 6.58591 189.012C6.36407 188.578 6.06366 188.236 5.68468 187.986C5.31494 187.737 4.88512 187.612 4.39523 187.612ZM14.7863 186.877C14.9065 186.877 15.0036 186.918 15.0775 187.002C15.1607 187.085 15.2023 187.182 15.2023 187.293V193.407C15.2023 194.156 15.0544 194.785 14.7586 195.293C14.4628 195.811 14.0654 196.199 13.5662 196.458C13.0671 196.726 12.4986 196.86 11.8608 196.86C11.4633 196.86 11.0936 196.814 10.7516 196.721C10.4188 196.638 10.1462 196.527 9.93356 196.388C9.82264 196.324 9.73945 196.245 9.68399 196.153C9.62853 196.06 9.62391 195.963 9.67013 195.861C9.71634 195.732 9.78567 195.644 9.8781 195.598C9.97978 195.561 10.0815 195.566 10.1831 195.612C10.3403 195.695 10.5667 195.797 10.8625 195.917C11.1583 196.037 11.4957 196.097 11.8747 196.097C12.3831 196.097 12.8221 195.991 13.1919 195.778C13.5708 195.566 13.862 195.256 14.0654 194.849C14.2687 194.452 14.3704 193.976 14.3704 193.421V192.423L14.4674 192.756C14.3288 193.042 14.1301 193.296 13.8712 193.518C13.6217 193.74 13.3305 193.916 12.9977 194.045C12.6742 194.165 12.3276 194.225 11.9579 194.225C11.4033 194.225 10.9411 194.114 10.5714 193.893C10.2109 193.662 9.94281 193.347 9.76718 192.95C9.59156 192.552 9.50374 192.086 9.50374 191.549V187.293C9.50374 187.182 9.54072 187.085 9.61467 187.002C9.68861 186.918 9.79029 186.877 9.9197 186.877C10.0399 186.877 10.1369 186.918 10.2109 187.002C10.2941 187.085 10.3356 187.182 10.3356 187.293V191.425C10.3356 192.072 10.4743 192.571 10.7516 192.922C11.0381 193.273 11.5003 193.449 12.1381 193.449C12.5356 193.449 12.9007 193.357 13.2334 193.172C13.5662 192.978 13.8389 192.728 14.0515 192.423C14.2641 192.109 14.3704 191.776 14.3704 191.425V187.293C14.3704 187.182 14.4074 187.085 14.4813 187.002C14.5645 186.918 14.6662 186.877 14.7863 186.877ZM24.0592 194.225C23.3568 194.235 22.7467 194.124 22.2291 193.893C21.7114 193.662 21.2169 193.315 20.7455 192.853C20.6993 192.816 20.6577 192.77 20.6207 192.714C20.593 192.659 20.5791 192.594 20.5791 192.52C20.5791 192.409 20.6207 192.307 20.7039 192.215C20.7963 192.123 20.898 192.076 21.0089 192.076C21.1199 192.076 21.2215 192.123 21.314 192.215C21.6745 192.603 22.0812 192.899 22.5341 193.102C22.9963 193.306 23.4908 193.407 24.0177 193.407C24.4613 193.407 24.8542 193.338 25.1962 193.199C25.5474 193.061 25.8247 192.862 26.0281 192.603C26.2314 192.344 26.3331 192.044 26.3331 191.702C26.3331 191.277 26.2176 190.935 25.9865 190.676C25.7554 190.408 25.4504 190.191 25.0714 190.024C24.6924 189.849 24.2718 189.692 23.8097 189.553C23.4307 189.442 23.0702 189.317 22.7282 189.178C22.3862 189.031 22.0812 188.855 21.8131 188.652C21.545 188.439 21.3371 188.18 21.1892 187.875C21.0413 187.57 20.9673 187.2 20.9673 186.766C20.9673 186.276 21.0967 185.842 21.3556 185.463C21.6144 185.084 21.9795 184.788 22.4509 184.575C22.9316 184.353 23.4862 184.243 24.1147 184.243C24.6601 184.243 25.1823 184.335 25.6815 184.52C26.1898 184.705 26.5919 184.977 26.8877 185.338C27.0264 185.486 27.0957 185.62 27.0957 185.74C27.0957 185.832 27.0495 185.925 26.957 186.017C26.8646 186.11 26.7629 186.156 26.652 186.156C26.5596 186.156 26.481 186.124 26.4163 186.059C26.2592 185.865 26.0604 185.694 25.8201 185.546C25.5798 185.389 25.3117 185.269 25.0159 185.185C24.7294 185.102 24.429 185.061 24.1147 185.061C23.6803 185.061 23.2874 185.13 22.9362 185.269C22.5942 185.398 22.3215 185.587 22.1181 185.837C21.924 186.087 21.827 186.387 21.827 186.738C21.827 187.126 21.9379 187.445 22.1597 187.695C22.3816 187.945 22.6727 188.152 23.0332 188.319C23.3937 188.476 23.7773 188.624 24.184 188.763C24.5815 188.873 24.9605 189.003 25.321 189.151C25.6907 189.289 26.0142 189.465 26.2915 189.678C26.5781 189.89 26.7999 190.158 26.957 190.482C27.1234 190.805 27.2066 191.212 27.2066 191.702C27.2066 192.173 27.0726 192.599 26.8045 192.978C26.5365 193.357 26.1667 193.657 25.6953 193.879C25.2332 194.101 24.6878 194.216 24.0592 194.225ZM36.0321 184.381C36.1615 184.381 36.2631 184.423 36.3371 184.506C36.411 184.58 36.448 184.677 36.448 184.797V190.537C36.448 191.221 36.2862 191.841 35.9627 192.395C35.6392 192.95 35.2048 193.393 34.6594 193.726C34.1141 194.05 33.4994 194.212 32.8154 194.212C32.1314 194.212 31.512 194.05 30.9574 193.726C30.4121 193.393 29.9776 192.95 29.6541 192.395C29.3306 191.841 29.1688 191.221 29.1688 190.537V184.797C29.1688 184.677 29.2058 184.58 29.2798 184.506C29.363 184.423 29.4739 184.381 29.6125 184.381C29.7235 184.381 29.8205 184.423 29.9037 184.506C29.9869 184.58 30.0285 184.677 30.0285 184.797V190.537C30.0285 191.073 30.1533 191.554 30.4028 191.979C30.6617 192.404 31.0037 192.746 31.4289 193.005C31.854 193.255 32.3162 193.38 32.8154 193.38C33.333 193.38 33.8044 193.255 34.2296 193.005C34.6548 192.746 34.9922 192.404 35.2417 191.979C35.5006 191.554 35.63 191.073 35.63 190.537V184.797C35.63 184.677 35.6669 184.58 35.7409 184.506C35.8148 184.423 35.9119 184.381 36.0321 184.381ZM42.7551 184.381C43.2727 184.381 43.7303 184.501 44.1277 184.742C44.5252 184.973 44.8395 185.296 45.0706 185.712C45.3016 186.128 45.4172 186.604 45.4172 187.14C45.4172 187.676 45.3016 188.162 45.0706 188.596C44.8395 189.021 44.5252 189.359 44.1277 189.608C43.7303 189.858 43.2727 189.983 42.7551 189.983H39.8157L39.885 189.844V193.671C39.885 193.782 39.8434 193.879 39.7602 193.962C39.6771 194.045 39.58 194.087 39.4691 194.087C39.3397 194.087 39.238 194.045 39.164 193.962C39.0901 193.879 39.0531 193.782 39.0531 193.671V184.797C39.0531 184.686 39.0947 184.589 39.1779 184.506C39.2611 184.423 39.3582 184.381 39.4691 184.381H42.7551ZM42.7551 189.178C43.1156 189.178 43.4299 189.091 43.6979 188.915C43.966 188.73 44.174 188.485 44.3219 188.18C44.479 187.866 44.5576 187.519 44.5576 187.14C44.5576 186.761 44.479 186.429 44.3219 186.142C44.174 185.846 43.966 185.615 43.6979 185.449C43.4299 185.282 43.1156 185.199 42.7551 185.199H39.8157L39.885 185.074V189.262L39.8018 189.178H42.7551ZM47.7285 184.381H52.817C52.9279 184.381 53.025 184.423 53.1082 184.506C53.1914 184.58 53.233 184.677 53.233 184.797C53.233 184.917 53.1914 185.014 53.1082 185.088C53.025 185.162 52.9279 185.199 52.817 185.199H48.0474L48.1861 184.964V188.86L48.0336 188.679H52.1931C52.304 188.679 52.4011 188.721 52.4843 188.804C52.5674 188.887 52.609 188.984 52.609 189.095C52.609 189.215 52.5674 189.313 52.4843 189.386C52.4011 189.46 52.304 189.497 52.1931 189.497H48.0613L48.1861 189.359V193.352L48.1168 193.269H52.817C52.9279 193.269 53.025 193.31 53.1082 193.393C53.1914 193.477 53.233 193.574 53.233 193.685C53.233 193.805 53.1914 193.902 53.1082 193.976C53.025 194.05 52.9279 194.087 52.817 194.087H47.7285C47.6176 194.087 47.5206 194.045 47.4374 193.962C47.3542 193.879 47.3126 193.782 47.3126 193.671V184.797C47.3126 184.686 47.3542 184.589 47.4374 184.506C47.5206 184.423 47.6176 184.381 47.7285 184.381ZM55.6643 194.087C55.5257 194.087 55.4101 194.045 55.3177 193.962C55.2345 193.879 55.1929 193.782 55.1929 193.671V184.797C55.1929 184.686 55.2345 184.589 55.3177 184.506C55.4009 184.423 55.498 184.381 55.6089 184.381H59.3524C59.8793 184.381 60.3507 184.497 60.7667 184.728C61.1826 184.95 61.5062 185.259 61.7372 185.657C61.9776 186.054 62.0977 186.503 62.0977 187.002C62.0977 187.408 62.0238 187.783 61.8759 188.125C61.728 188.467 61.52 188.758 61.252 188.998C60.9839 189.229 60.6835 189.4 60.3507 189.511L59.8655 189.359C60.2075 189.386 60.5264 189.497 60.8221 189.692C61.1179 189.876 61.3536 190.135 61.5293 190.468C61.7141 190.791 61.8112 191.184 61.8204 191.646C61.8297 192.044 61.8482 192.354 61.8759 192.575C61.9129 192.797 61.9637 192.964 62.0284 193.075C62.0931 193.186 62.1763 193.273 62.278 193.338C62.3704 193.393 62.4305 193.472 62.4582 193.574C62.4952 193.675 62.486 193.772 62.4305 193.865C62.3935 193.939 62.3381 193.994 62.2641 194.031C62.1994 194.059 62.1301 194.073 62.0561 194.073C61.9822 194.073 61.9082 194.054 61.8343 194.017C61.7049 193.943 61.5709 193.828 61.4322 193.671C61.3028 193.514 61.1919 193.283 61.0994 192.978C61.0163 192.672 60.9747 192.247 60.9747 191.702C60.9747 191.341 60.9146 191.046 60.7944 190.815C60.6835 190.583 60.5356 190.408 60.3507 190.288C60.1751 190.158 59.9764 190.07 59.7545 190.024C59.5419 189.969 59.3386 189.941 59.1445 189.941H55.9139L56.0664 189.747V193.671C56.0664 193.782 56.0295 193.879 55.9555 193.962C55.8816 194.045 55.7845 194.087 55.6643 194.087ZM55.9139 189.178H59.394C59.7083 189.151 60.0041 189.049 60.2814 188.873C60.5587 188.689 60.7805 188.439 60.9469 188.125C61.1226 187.81 61.2104 187.445 61.2104 187.029C61.2104 186.503 61.0301 186.068 60.6696 185.726C60.3184 185.375 59.8562 185.199 59.2831 185.199H55.9694L56.0664 185.005V189.373L55.9139 189.178ZM71.4311 185.102C71.542 185.176 71.6067 185.273 71.6252 185.393C71.6437 185.504 71.616 185.615 71.542 185.726C71.4773 185.809 71.3941 185.856 71.2924 185.865C71.1908 185.874 71.0937 185.856 71.0013 185.809C70.65 185.578 70.271 185.398 69.8643 185.269C69.4669 185.139 69.0371 185.074 68.5749 185.074C68.011 185.074 67.4842 185.176 66.9943 185.379C66.5136 185.574 66.093 185.86 65.7325 186.239C65.3721 186.609 65.0901 187.048 64.8868 187.556C64.6927 188.065 64.5956 188.624 64.5956 189.234C64.5956 189.863 64.6973 190.436 64.9006 190.953C65.104 191.462 65.3859 191.901 65.7464 192.27C66.1161 192.64 66.5413 192.922 67.022 193.116C67.5027 193.31 68.0203 193.407 68.5749 193.407C69.0278 193.407 69.453 193.343 69.8505 193.213C70.2572 193.084 70.6362 192.908 70.9874 192.686C71.0798 192.631 71.1769 192.612 71.2786 192.631C71.3895 192.64 71.4773 192.691 71.542 192.783C71.6252 192.885 71.6529 192.996 71.6252 193.116C71.6067 193.227 71.5466 193.315 71.445 193.38C71.2139 193.528 70.9412 193.666 70.6269 193.796C70.3126 193.925 69.9799 194.027 69.6286 194.101C69.2774 194.184 68.9261 194.225 68.5749 194.225C67.9094 194.225 67.2854 194.105 66.7031 193.865C66.1208 193.625 65.6031 193.287 65.1502 192.853C64.6973 192.409 64.3414 191.882 64.0826 191.272C63.833 190.662 63.7082 189.983 63.7082 189.234C63.7082 188.513 63.833 187.852 64.0826 187.251C64.3322 186.641 64.6788 186.114 65.1225 185.671C65.5662 185.227 66.0838 184.88 66.6754 184.631C67.2669 184.381 67.9001 184.256 68.5749 184.256C69.1018 184.256 69.6101 184.33 70.1 184.478C70.5899 184.626 71.0336 184.834 71.4311 185.102ZM82.0562 189.234C82.0562 189.964 81.9406 190.634 81.7095 191.244C81.4877 191.845 81.1688 192.372 80.7529 192.825C80.3369 193.269 79.8424 193.615 79.2693 193.865C78.7054 194.105 78.0861 194.225 77.4114 194.225C76.7366 194.225 76.1127 194.105 75.5396 193.865C74.9757 193.615 74.4858 193.269 74.0699 192.825C73.6539 192.372 73.3304 191.845 73.0993 191.244C72.8775 190.634 72.7666 189.964 72.7666 189.234C72.7666 188.504 72.8775 187.838 73.0993 187.237C73.3304 186.627 73.6539 186.1 74.0699 185.657C74.4858 185.204 74.9757 184.857 75.5396 184.617C76.1127 184.367 76.7366 184.243 77.4114 184.243C78.0861 184.243 78.7054 184.367 79.2693 184.617C79.8424 184.857 80.3369 185.204 80.7529 185.657C81.1688 186.1 81.4877 186.627 81.7095 187.237C81.9406 187.838 82.0562 188.504 82.0562 189.234ZM81.1688 189.234C81.1688 188.411 81.007 187.69 80.6835 187.071C80.3693 186.442 79.9302 185.953 79.3663 185.601C78.8025 185.25 78.1508 185.074 77.4114 185.074C76.6811 185.074 76.0295 185.25 75.4564 185.601C74.8926 185.953 74.4489 186.442 74.1254 187.071C73.8111 187.69 73.6539 188.411 73.6539 189.234C73.6539 190.057 73.8111 190.782 74.1254 191.411C74.4489 192.03 74.8926 192.515 75.4564 192.867C76.0295 193.218 76.6811 193.393 77.4114 193.393C78.1508 193.393 78.8025 193.218 79.3663 192.867C79.9302 192.515 80.3693 192.03 80.6835 191.411C81.007 190.782 81.1688 190.057 81.1688 189.234ZM87.9714 184.381C88.6554 184.381 89.2516 184.511 89.7599 184.769C90.2776 185.028 90.7028 185.389 91.0355 185.851C91.3683 186.304 91.6132 186.821 91.7704 187.404C91.9368 187.986 92.02 188.596 92.02 189.234C92.02 190.121 91.8721 190.935 91.5763 191.674C91.2897 192.404 90.846 192.991 90.2452 193.435C89.6536 193.87 88.8957 194.087 87.9714 194.087H84.4358C84.3248 194.087 84.2278 194.045 84.1446 193.962C84.0614 193.879 84.0198 193.782 84.0198 193.671V184.797C84.0198 184.686 84.0614 184.589 84.1446 184.506C84.2278 184.423 84.3248 184.381 84.4358 184.381H87.9714ZM87.8327 193.269C88.6184 193.269 89.2516 193.088 89.7322 192.728C90.2129 192.367 90.5641 191.882 90.786 191.272C91.017 190.653 91.1326 189.973 91.1326 189.234C91.1326 188.698 91.0679 188.189 90.9385 187.709C90.8183 187.219 90.6242 186.789 90.3561 186.419C90.0973 186.04 89.7553 185.745 89.3301 185.532C88.9142 185.31 88.415 185.199 87.8327 185.199H84.7963L84.8933 185.074V193.407L84.8101 193.269H87.8327ZM94.4013 184.381H99.4898C99.6007 184.381 99.6977 184.423 99.7809 184.506C99.8641 184.58 99.9057 184.677 99.9057 184.797C99.9057 184.917 99.8641 185.014 99.7809 185.088C99.6977 185.162 99.6007 185.199 99.4898 185.199H94.7202L94.8588 184.964V188.86L94.7063 188.679H98.8658C98.9767 188.679 99.0738 188.721 99.157 188.804C99.2402 188.887 99.2818 188.984 99.2818 189.095C99.2818 189.215 99.2402 189.313 99.157 189.386C99.0738 189.46 98.9767 189.497 98.8658 189.497H94.734L94.8588 189.359V193.352L94.7895 193.269H99.4898C99.6007 193.269 99.6977 193.31 99.7809 193.393C99.8641 193.477 99.9057 193.574 99.9057 193.685C99.9057 193.805 99.8641 193.902 99.7809 193.976C99.6977 194.05 99.6007 194.087 99.4898 194.087H94.4013C94.2904 194.087 94.1933 194.045 94.1101 193.962C94.0269 193.879 93.9853 193.782 93.9853 193.671V184.797C93.9853 184.686 94.0269 184.589 94.1101 184.506C94.1933 184.423 94.2904 184.381 94.4013 184.381Z" fill="#003566"/>
</svg>
